<svg xmlns="http://www.w3.org/2000/svg" viewBox="0 0 64 64">
  <defs><linearGradient id="g" x1="0" y1="0" x2="1" y2="1"><stop stop-color="#49d6d0"/><stop offset="1" stop-color="#6e91ff"/></linearGradient></defs>
  <rect width="64" height="64" rx="18" fill="#07111f"/>
  <path d="M17 32c0-8 7-14 15-14 5 0 9 2 12 6 3-4 7-6 12-6 8 0 14 6 14 14s-6 14-14 14c-5 0-9-2-12-6-3 4-7 6-12 6-8 0-15-6-15-14Zm8 0c0 4 3 7 7 7s7-3 7-7-3-7-7-7-7 3-7 7Zm22 0c0 4 3 7 7 7s7-3 7-7-3-7-7-7-7 3-7 7Z" fill="url(#g)" transform="translate(-9)"/>
</svg>
